<?xml version="1.0" encoding="iso-8859-1"?>
<!-- Generator: Adobe Illustrator 16.0.0, SVG Export Plug-In . SVG Version: 6.00 Build 0)  -->
<!DOCTYPE svg PUBLIC "-//W3C//DTD SVG 1.1//EN" "http://www.w3.org/Graphics/SVG/1.1/DTD/svg11.dtd">
<svg xmlns="http://www.w3.org/2000/svg" xmlns:xlink="http://www.w3.org/1999/xlink" version="1.1" id="Capa_1" x="0px" y="0px" width="512px" height="512px" viewBox="0 0 45.9 45.9" style="enable-background:new 0 0 45.9 45.9;" xml:space="preserve">
<g>
	<g>
		<path d="M38.978,38.973c-0.384-1.401-1.308-2.594-2.571-3.312l-2.87-1.637c0.524-1.375,0.813-2.875,0.813-4.445    c0-1.094-0.142-2.152-0.402-3.16l1.288-0.351c1.03-0.281,1.907-0.958,2.438-1.884c0.526-0.926,0.669-2.025,0.39-3.057    c-0.586-2.145-2.798-3.409-4.941-2.825L29.64,19.25c2.453-1.767,4.023-4.484,4.023-7.531c0-0.055-0.001-0.109-0.002-0.164    c2.412-0.744,4.17-2.994,4.17-5.646c0-3.258-2.649-5.908-5.907-5.908c-2.103,0-3.95,1.104-4.997,2.762    c-1.231-0.443-2.573-0.687-3.977-0.687c-1.405,0-2.747,0.244-3.977,0.686C17.926,1.104,16.077,0,13.976,0    c-3.258,0-5.908,2.65-5.908,5.908c0,2.653,1.758,4.902,4.17,5.646c-0.001,0.055-0.002,0.109-0.002,0.164    c0,3.047,1.571,5.764,4.024,7.531l-3.482-0.948c-2.145-0.584-4.355,0.681-4.94,2.825c-0.279,1.03-0.14,2.129,0.389,3.056    c0.53,0.926,1.407,1.604,2.437,1.885l1.288,0.351c-0.263,1.007-0.403,2.065-0.403,3.161c0,1.57,0.29,3.07,0.814,4.445l-2.87,1.637    c-1.263,0.72-2.187,1.912-2.57,3.312c-0.385,1.402-0.195,2.899,0.524,4.16c1.498,2.631,4.844,3.547,7.473,2.047l6.562-3.738    c0.481,0.064,0.972,0.099,1.47,0.099s0.988-0.034,1.469-0.099l6.562,3.738c2.631,1.5,5.976,0.584,7.472-2.047    C39.174,41.872,39.362,40.375,38.978,38.973z M18.518,10.158c0.624,0,1.132,0.507,1.132,1.131s-0.508,1.132-1.132,1.132    c-0.625,0-1.132-0.507-1.132-1.132S17.893,10.158,18.518,10.158z M27.382,10.241c0.625,0,1.132,0.507,1.132,1.132    s-0.507,1.131-1.132,1.131s-1.132-0.506-1.132-1.131S26.757,10.241,27.382,10.241z M22.479,36.989    c-1.289-1.282-4.787-4.765-4.859-4.836c-1.475-1.476-1.475-3.866,0-5.341c1.473-1.471,3.854-1.475,5.33-0.01    c1.476-1.465,3.857-1.461,5.33,0.01c1.476,1.475,1.476,3.865,0,5.341c-0.073,0.071-3.571,3.554-4.859,4.836    C23.16,37.248,22.739,37.248,22.479,36.989z M31.923,2.983c1.611,0,2.925,1.313,2.925,2.925c0,1.199-0.728,2.231-1.761,2.682    c-0.675-1.768-1.902-3.304-3.498-4.439C30.122,3.442,30.97,2.983,31.923,2.983z M22.95,12.534c1.969,0,3.564,1.437,3.564,3.208    s-1.597,3.208-3.564,3.208c-1.968,0-3.564-1.436-3.564-3.208C19.386,13.971,20.98,12.534,22.95,12.534z M11.052,5.908    c0-1.612,1.313-2.925,2.925-2.925c0.953,0,1.801,0.459,2.334,1.167c-1.596,1.136-2.824,2.672-3.498,4.438    C11.778,8.139,11.052,7.107,11.052,5.908z" fill="#FFFFFF"/>
		<ellipse cx="22.95" cy="14.497" rx="1.594" ry="1.435" fill="#FFFFFF"/>
	</g>
</g>
<g>
</g>
<g>
</g>
<g>
</g>
<g>
</g>
<g>
</g>
<g>
</g>
<g>
</g>
<g>
</g>
<g>
</g>
<g>
</g>
<g>
</g>
<g>
</g>
<g>
</g>
<g>
</g>
<g>
</g>
</svg>
