<?xml version="1.0" encoding="iso-8859-1"?>
<!-- Generator: Adobe Illustrator 16.0.0, SVG Export Plug-In . SVG Version: 6.00 Build 0)  -->
<!DOCTYPE svg PUBLIC "-//W3C//DTD SVG 1.1//EN" "http://www.w3.org/Graphics/SVG/1.1/DTD/svg11.dtd">
<svg xmlns="http://www.w3.org/2000/svg" xmlns:xlink="http://www.w3.org/1999/xlink" version="1.1" id="Capa_1" x="0px" y="0px" width="512px" height="512px" viewBox="0 0 439.875 439.875" style="enable-background:new 0 0 439.875 439.875;" xml:space="preserve">
<g>
	<g>
		<path d="M183.6,114.75c3.825-26.775,17.212-43.987,17.212-66.938C200.812,26.775,181.688,0,143.438,0S86.062,26.775,86.062,47.812    c0,22.95,13.388,40.163,17.212,66.938H183.6z" fill="#FFFFFF"/>
		<path d="M143.438,334.688c0-45.9,24.862-87.975,63.112-109.013c-3.825-13.388-9.562-26.775-15.3-34.425H93.712    C82.237,214.2,66.938,256.275,66.938,306c0,76.5,38.25,133.875,38.25,133.875h76.5c0,0,1.913-3.825,5.737-9.562    C160.65,407.362,143.438,372.938,143.438,334.688z" fill="#FFFFFF"/>
		<rect x="105.188" y="133.875" width="76.5" height="38.25" fill="#FFFFFF"/>
		<path d="M267.75,229.5c-57.375,0-105.188,47.812-105.188,105.188s47.812,105.188,105.188,105.188s105.188-47.812,105.188-105.188    S325.125,229.5,267.75,229.5z M248.625,325.125c-5.737,0-9.562-3.825-9.562-9.562s3.825-9.562,9.562-9.562    s9.562,3.825,9.562,9.562S254.362,325.125,248.625,325.125z M267.75,286.875c-5.737,0-9.562-3.825-9.562-9.562    s3.825-9.562,9.562-9.562s9.562,3.825,9.562,9.562S273.487,286.875,267.75,286.875z M286.875,325.125    c-5.737,0-9.562-3.825-9.562-9.562s3.825-9.562,9.562-9.562s9.562,3.825,9.562,9.562S292.612,325.125,286.875,325.125z" fill="#FFFFFF"/>
	</g>
</g>
<g>
</g>
<g>
</g>
<g>
</g>
<g>
</g>
<g>
</g>
<g>
</g>
<g>
</g>
<g>
</g>
<g>
</g>
<g>
</g>
<g>
</g>
<g>
</g>
<g>
</g>
<g>
</g>
<g>
</g>
</svg>
